<svg xmlns="http://www.w3.org/2000/svg" width="128.971" height="124" viewBox="0 0 128.971 124">
<rect fill="#f5f5f5" width="100%" height="100%"/>
  <g id="Group_868" data-name="Group 868" transform="translate(-962.128 -466)">
    <path id="Path_149" data-name="Path 149" d="M-5854.848,4524s-.968-17.472,9.386-22.371,31.144-11.41,31.144-11.41,4.61,31.377,22.843,31.377,27.141-31.377,27.141-31.377,25.728,9.676,28.668,11.41,9.423,6.345,9.765,22.371C-5725.939,4523.79-5854.848,4524-5854.848,4524Z" transform="translate(6817 -3934)" fill="#e4e3e3"/>
    <g id="Group_867" data-name="Group 867">
      <path id="Path_154" data-name="Path 154" d="M-5766.246,4443.03s9.641-5.931,10.354.119-2.156,12.046-13,25.83-17.283,15.142-21.4,15.142-15.833-7.561-22.149-16.553-14.436-18.054-12.127-24.378,11.756,2.486,11.756,2.486l26.2,2.109Z" transform="translate(6817.089 -3934)" fill="#e4e3e3"/>
      <path id="Path_152" data-name="Path 152" d="M-5749.278,4484.122c-.07.121-24.948,4.069-33.221-7.721s17.6-25.158,17.6-25.158S-5763.029,4472.871-5749.278,4484.122Z" transform="translate(6817 -3934)" fill="#e4e3e3"/>
      <path id="Path_153" data-name="Path 153" d="M-5832.155,4484.852c.325.111,15.16-7.91,15.305-27.322s16.661,14.007,16.661,14.007S-5798.8,4489.693-5832.155,4484.852Z" transform="translate(6817 -3934)" fill="#e4e3e3"/>
      <rect id="Rectangle_2155" data-name="Rectangle 2155" width="65" height="54" rx="27" transform="translate(994 466)" fill="#e4e3e3"/>
    </g>
    <path id="Path_151" data-name="Path 151" d="M-5774.99,4419.625a19.075,19.075,0,0,1-16.57,13.618c-13.76,1.684-19.624.961-19.624.961s-7.732,1.227-4.8,9.068c.15.03-3.794-1.181-4.375.987-.885,2.565-.9,5.819,7.436,17.649s18.436,19.721,23.094,19.827,14.789-6.825,22.574-18.519,8.362-14.046,8.362-15.861-.717-4.469-3.192-4.083-3.358-.053-2.021-2.253,2.5-4.564.969-7.776S-5774.99,4419.625-5774.99,4419.625Z" transform="translate(6816.625 -3934)" fill="#f5f5f5"/>
  </g>
</svg>
